<svg viewBox="0 0 330 200" xmlns="http://www.w3.org/2000/svg"><g><g><g><g><g><line x1="80.3125" y1="176" x2="75.3125" y2="176" style="visibility: inherit;" fill="rgb(0, 0, 0)" stroke="rgb(204, 204, 204)" stroke-width="1px"></line><line x1="80.3125" y1="162.46153846153845" x2="75.3125" y2="162.46153846153845" style="visibility: inherit;" fill="rgb(0, 0, 0)" stroke="rgb(204, 204, 204)" stroke-width="1px"></line><line x1="80.3125" y1="148.9230769230769" x2="75.3125" y2="148.9230769230769" style="visibility: inherit;" fill="rgb(0, 0, 0)" stroke="rgb(204, 204, 204)" stroke-width="1px"></line><line x1="80.3125" y1="135.3846153846154" x2="75.3125" y2="135.3846153846154" style="visibility: inherit;" fill="rgb(0, 0, 0)" stroke="rgb(204, 204, 204)" stroke-width="1px"></line><line x1="80.3125" y1="121.84615384615384" x2="75.3125" y2="121.84615384615384" style="visibility: inherit;" fill="rgb(0, 0, 0)" stroke="rgb(204, 204, 204)" stroke-width="1px"></line><line x1="80.3125" y1="108.3076923076923" x2="75.3125" y2="108.3076923076923" style="visibility: inherit;" fill="rgb(0, 0, 0)" stroke="rgb(204, 204, 204)" stroke-width="1px"></line><line x1="80.3125" y1="94.76923076923077" x2="75.3125" y2="94.76923076923077" style="visibility: inherit;" fill="rgb(0, 0, 0)" stroke="rgb(204, 204, 204)" stroke-width="1px"></line><line x1="80.3125" y1="81.23076923076921" x2="75.3125" y2="81.23076923076921" style="visibility: inherit;" fill="rgb(0, 0, 0)" stroke="rgb(204, 204, 204)" stroke-width="1px"></line><line x1="80.3125" y1="67.69230769230768" x2="75.3125" y2="67.69230769230768" style="visibility: inherit;" fill="rgb(0, 0, 0)" stroke="rgb(204, 204, 204)" stroke-width="1px"></line><line x1="80.3125" y1="54.15384615384616" x2="75.3125" y2="54.15384615384616" style="visibility: inherit;" fill="rgb(0, 0, 0)" stroke="rgb(204, 204, 204)" stroke-width="1px"></line><line x1="80.3125" y1="40.61538461538461" x2="75.3125" y2="40.61538461538461" style="visibility: inherit;" fill="rgb(0, 0, 0)" stroke="rgb(204, 204, 204)" stroke-width="1px"></line><line x1="80.3125" y1="27.076923076923066" x2="75.3125" y2="27.076923076923066" style="visibility: inherit;" fill="rgb(0, 0, 0)" stroke="rgb(204, 204, 204)" stroke-width="1px"></line><line x1="80.3125" y1="13.538461538461547" x2="75.3125" y2="13.538461538461547" style="visibility: inherit;" fill="rgb(0, 0, 0)" stroke="rgb(204, 204, 204)" stroke-width="1px"></line><line x1="80.3125" y1="0" x2="75.3125" y2="0" style="visibility: inherit;" fill="rgb(0, 0, 0)" stroke="rgb(204, 204, 204)" stroke-width="1px"></line></g><g transform="translate(70.3125, 0)"><text style="text-anchor: end; visibility: hidden; font-family: &quot;Helvetica Neue&quot;, sans-serif; font-size: 12px; font-weight: 200;" x="0" y="176" dx="0em" dy="0.3em" fill="rgb(50, 49, 63)" stroke="none" stroke-width="1px">0.00</text><text style="text-anchor: end; visibility: inherit; font-family: &quot;Helvetica Neue&quot;, sans-serif; font-size: 12px; font-weight: 200;" x="0" y="162.46153846153845" dx="0em" dy="0.3em" fill="rgb(50, 49, 63)" stroke="none" stroke-width="1px">0.0100</text><text style="text-anchor: end; visibility: hidden; font-family: &quot;Helvetica Neue&quot;, sans-serif; font-size: 12px; font-weight: 200;" x="0" y="148.9230769230769" dx="0em" dy="0.3em" fill="rgb(50, 49, 63)" stroke="none" stroke-width="1px">0.0200</text><text style="text-anchor: end; visibility: inherit; font-family: &quot;Helvetica Neue&quot;, sans-serif; font-size: 12px; font-weight: 200;" x="0" y="135.3846153846154" dx="0em" dy="0.3em" fill="rgb(50, 49, 63)" stroke="none" stroke-width="1px">0.0300</text><text style="text-anchor: end; visibility: hidden; font-family: &quot;Helvetica Neue&quot;, sans-serif; font-size: 12px; font-weight: 200;" x="0" y="121.84615384615384" dx="0em" dy="0.3em" fill="rgb(50, 49, 63)" stroke="none" stroke-width="1px">0.0400</text><text style="text-anchor: end; visibility: inherit; font-family: &quot;Helvetica Neue&quot;, sans-serif; font-size: 12px; font-weight: 200;" x="0" y="108.3076923076923" dx="0em" dy="0.3em" fill="rgb(50, 49, 63)" stroke="none" stroke-width="1px">0.0500</text><text style="text-anchor: end; visibility: hidden; font-family: &quot;Helvetica Neue&quot;, sans-serif; font-size: 12px; font-weight: 200;" x="0" y="94.76923076923077" dx="0em" dy="0.3em" fill="rgb(50, 49, 63)" stroke="none" stroke-width="1px">0.0600</text><text style="text-anchor: end; visibility: inherit; font-family: &quot;Helvetica Neue&quot;, sans-serif; font-size: 12px; font-weight: 200;" x="0" y="81.23076923076921" dx="0em" dy="0.3em" fill="rgb(50, 49, 63)" stroke="none" stroke-width="1px">0.0700</text><text style="text-anchor: end; visibility: hidden; font-family: &quot;Helvetica Neue&quot;, sans-serif; font-size: 12px; font-weight: 200;" x="0" y="67.69230769230768" dx="0em" dy="0.3em" fill="rgb(50, 49, 63)" stroke="none" stroke-width="1px">0.0800</text><text style="text-anchor: end; visibility: inherit; font-family: &quot;Helvetica Neue&quot;, sans-serif; font-size: 12px; font-weight: 200;" x="0" y="54.15384615384616" dx="0em" dy="0.3em" fill="rgb(50, 49, 63)" stroke="none" stroke-width="1px">0.0900</text><text style="text-anchor: end; visibility: hidden; font-family: &quot;Helvetica Neue&quot;, sans-serif; font-size: 12px; font-weight: 200;" x="0" y="40.61538461538461" dx="0em" dy="0.3em" fill="rgb(50, 49, 63)" stroke="none" stroke-width="1px">0.100</text><text style="text-anchor: end; visibility: inherit; font-family: &quot;Helvetica Neue&quot;, sans-serif; font-size: 12px; font-weight: 200;" x="0" y="27.076923076923066" dx="0em" dy="0.3em" fill="rgb(50, 49, 63)" stroke="none" stroke-width="1px">0.110</text><text style="text-anchor: end; visibility: hidden; font-family: &quot;Helvetica Neue&quot;, sans-serif; font-size: 12px; font-weight: 200;" x="0" y="13.538461538461547" dx="0em" dy="0.3em" fill="rgb(50, 49, 63)" stroke="none" stroke-width="1px">0.120</text><text style="text-anchor: end; visibility: hidden; font-family: &quot;Helvetica Neue&quot;, sans-serif; font-size: 12px; font-weight: 200;" x="0" y="0" dx="0em" dy="0.3em" fill="rgb(50, 49, 63)" stroke="none" stroke-width="1px">0.130</text></g><line x1="80.3125" y1="0" x2="80.3125" y2="176" fill="rgb(0, 0, 0)" stroke="rgb(204, 204, 204)" stroke-width="1px"></line></g></g><g transform="translate(80, 0)" clip-path="url(#clip_0)"><clipPath id="clip_0"><rect width="249" height="176"></rect></clipPath><g><g><g><line x1="0" y1="0" x2="0" y2="176" fill="rgb(0, 0, 0)" stroke="rgb(60, 60, 60)" stroke-width="1px" opacity="0.25"></line><line x1="27.743055555555554" y1="0" x2="27.743055555555554" y2="176" fill="rgb(0, 0, 0)" stroke="rgb(60, 60, 60)" stroke-width="1px" opacity="0.25"></line><line x1="55.48611111111111" y1="0" x2="55.48611111111111" y2="176" fill="rgb(0, 0, 0)" stroke="rgb(60, 60, 60)" stroke-width="1px" opacity="0.25"></line><line x1="83.22916666666666" y1="0" x2="83.22916666666666" y2="176" fill="rgb(0, 0, 0)" stroke="rgb(60, 60, 60)" stroke-width="1px" opacity="0.25"></line><line x1="110.97222222222221" y1="0" x2="110.97222222222221" y2="176" fill="rgb(0, 0, 0)" stroke="rgb(60, 60, 60)" stroke-width="1px" opacity="0.25"></line><line x1="138.71527777777777" y1="0" x2="138.71527777777777" y2="176" fill="rgb(0, 0, 0)" stroke="rgb(60, 60, 60)" stroke-width="1px" opacity="0.25"></line><line x1="166.45833333333331" y1="0" x2="166.45833333333331" y2="176" fill="rgb(0, 0, 0)" stroke="rgb(60, 60, 60)" stroke-width="1px" opacity="0.25"></line><line x1="194.20138888888889" y1="0" x2="194.20138888888889" y2="176" fill="rgb(0, 0, 0)" stroke="rgb(60, 60, 60)" stroke-width="1px" opacity="0.25"></line><line x1="221.94444444444443" y1="0" x2="221.94444444444443" y2="176" fill="rgb(0, 0, 0)" stroke="rgb(60, 60, 60)" stroke-width="1px" opacity="0.25"></line><line x1="249.6875" y1="0" x2="249.6875" y2="176" fill="rgb(0, 0, 0)" stroke="rgb(60, 60, 60)" stroke-width="1px" opacity="0.25"></line></g><g><line x1="0" y1="176" x2="249.6875" y2="176" fill="rgb(0, 0, 0)" stroke="rgb(60, 60, 60)" stroke-width="1px" opacity="0.25"></line><line x1="0" y1="162.46153846153845" x2="249.6875" y2="162.46153846153845" fill="rgb(0, 0, 0)" stroke="rgb(60, 60, 60)" stroke-width="1px" opacity="0.25"></line><line x1="0" y1="148.9230769230769" x2="249.6875" y2="148.9230769230769" fill="rgb(0, 0, 0)" stroke="rgb(60, 60, 60)" stroke-width="1px" opacity="0.25"></line><line x1="0" y1="135.3846153846154" x2="249.6875" y2="135.3846153846154" fill="rgb(0, 0, 0)" stroke="rgb(60, 60, 60)" stroke-width="1px" opacity="0.25"></line><line x1="0" y1="121.84615384615384" x2="249.6875" y2="121.84615384615384" fill="rgb(0, 0, 0)" stroke="rgb(60, 60, 60)" stroke-width="1px" opacity="0.25"></line><line x1="0" y1="108.3076923076923" x2="249.6875" y2="108.3076923076923" fill="rgb(0, 0, 0)" stroke="rgb(60, 60, 60)" stroke-width="1px" opacity="0.25"></line><line x1="0" y1="94.76923076923077" x2="249.6875" y2="94.76923076923077" fill="rgb(0, 0, 0)" stroke="rgb(60, 60, 60)" stroke-width="1px" opacity="0.25"></line><line x1="0" y1="81.23076923076921" x2="249.6875" y2="81.23076923076921" fill="rgb(0, 0, 0)" stroke="rgb(60, 60, 60)" stroke-width="1px" opacity="0.25"></line><line x1="0" y1="67.69230769230768" x2="249.6875" y2="67.69230769230768" fill="rgb(0, 0, 0)" stroke="rgb(60, 60, 60)" stroke-width="1px" opacity="0.25"></line><line x1="0" y1="54.15384615384616" x2="249.6875" y2="54.15384615384616" fill="rgb(0, 0, 0)" stroke="rgb(60, 60, 60)" stroke-width="1px" opacity="0.25"></line><line x1="0" y1="40.61538461538461" x2="249.6875" y2="40.61538461538461" fill="rgb(0, 0, 0)" stroke="rgb(60, 60, 60)" stroke-width="1px" opacity="0.25"></line><line x1="0" y1="27.076923076923066" x2="249.6875" y2="27.076923076923066" fill="rgb(0, 0, 0)" stroke="rgb(60, 60, 60)" stroke-width="1px" opacity="0.25"></line><line x1="0" y1="13.538461538461547" x2="249.6875" y2="13.538461538461547" fill="rgb(0, 0, 0)" stroke="rgb(60, 60, 60)" stroke-width="1px" opacity="0.25"></line><line x1="0" y1="0" x2="249.6875" y2="0" fill="rgb(0, 0, 0)" stroke="rgb(60, 60, 60)" stroke-width="1px" opacity="0.25"></line></g></g></g><g><g><line x1="0" y1="176" x2="249.6875" y2="176" fill="rgb(0, 0, 0)" stroke="rgb(153, 153, 153)" stroke-width="1.5px"></line></g></g><g><g><line x1="27.743055555555554" y1="0" x2="27.743055555555554" y2="176" fill="rgb(0, 0, 0)" stroke="rgb(153, 153, 153)" stroke-width="1.5px"></line></g></g><g><g><g><g><g><path stroke="rgb(255, 112, 67)" stroke-width="2px" d="M27.743055555555554,16.63431849846475L29.130208333333332,59.579471363471114L30.51736111111111,80.65529789355712L31.904513888888886,94.63574137346508L33.291666666666664,105.52932829515274L34.67881944444444,112.94558229331565L36.06597222222222,119.78010457052702L37.453125,125.62009907899761L38.84027777777778,130.7492668515368L40.22743055555556,135.71623577463072L41.61458333333333,140.6007533524372L43.001736111111114,144.6617322710601L44.38888888888889,148.42962121643114L45.776041666666664,151.15928374101577L47.16319444444444,153.69374944406232L48.55034722222222,155.26843384799318L49.9375,156.12620936428414L51.32465277777778,157.6011756254189L52.71180555555556,157.82657251136092L54.098958333333336,159.0012046968293L55.48611111111111,160.18926923143366L56.873263888888886,160.5779815231456L58.260416666666664,160.96022671132016L59.64756944444445,161.96164657288207L61.03472222222222,162.20100371707824L62.421875,162.69123214417837L63.80902777777777,163.2946486803813L65.19618055555556,163.7177050654274L66.58333333333333,163.9236217132999L67.9704861111111,164.2095436824268L69.35763888888889,164.72955121669276L70.74479166666667,165.07451275441704L72.13194444444444,165.29779998988036L73.51909722222223,165.38705237941969L74.90625,165.54221989782917L76.29340277777779,165.93800778931984L77.68055555555556,166.334547277624L79.06770833333333,166.71649759289312L80.45486111111111,166.57108018943453L81.84201388888889,166.80656164179433L83.22916666666666,167.0079258052774L84.61631944444444,167.16683384915572L86.00347222222223,167.0499756862344L87.390625,166.93649199045984L88.77777777777779,167.06926124174544L90.16493055555556,167.25997344413852L91.55208333333333,167.58265547426814L92.93923611111111,167.91956076904262L94.32638888888889,168.15847765046846L95.71354166666667,167.89967409477592L97.10069444444444,167.99137270183675L98.48784722222221,168.19505596000798L99.875,168.3788030568938L101.26215277777777,168.3296905256892L102.64930555555556,168.35361822324808L104.03645833333334,168.45198921625968L105.42361111111111,168.3571002398303L106.81076388888889,168.45336805346756L108.19791666666667,168.81419866787516L109.58506944444444,168.82875826523514L110.97222222222221,169.08600066595608L112.359375,169.10899271433783L113.74652777777777,169.17102142033576L115.13368055555556,169.06876526527626L116.52083333333333,169.19850486576067L117.90798611111111,169.23045229305376L119.2951388888889,169.17677766087613L120.68229166666667,169.1958833795504L122.06944444444444,169.43340648138664L123.45659722222223,169.37196241801237L124.84375,169.36728315298754L126.23090277777777,169.35587748641464L127.61805555555554,169.43089288189364L129.00520833333334,169.46293031448886L130.39236111111111,169.29620936768418L131.77951388888889,169.49432808176516L133.16666666666666,169.5010247213134L134.55381944444443,169.39846081996126L135.9409722222222,169.39850097758685L137.328125,169.49799768201225L138.71527777777777,169.36127575036758L140.10243055555554,169.4027395181286L141.48958333333334,169.4573818166511L142.87673611111111,169.43390300160618L144.26388888888889,169.26266774568083L145.65104166666669,169.34173082270556L147.03819444444446,169.29948190379983L148.42534722222223,169.02385590437513L149.8125,169.11840561514865L151.19965277777777,169.3108811916365L152.58680555555557,169.605772345978L153.97395833333334,169.4460586981743L155.36111111111111,169.49126610296508L156.74826388888889,169.49722133727624L158.13541666666666,169.36894959966622L159.52256944444443,169.25065708613565L160.90972222222223,169.37588037616024L162.296875,169.4222100846392L163.68402777777777,169.4908769118854L165.07118055555554,169.4093076020245L166.45833333333331,169.3062135228145L167.84548611111111,169.2667526035683L169.23263888888889,169.3115918433634L170.61979166666666,169.3148937131239L172.00694444444446,169.4734763419103L173.39409722222223,169.31313886230325L174.78125,169.11970659577239L176.1684027777778,169.13818381395893L177.55555555555557,169.14068388946717L178.94270833333334,169.18107186193754L180.32986111111111,169.08927230636036L181.71701388888889,169.29879065834413L183.10416666666666,169.42197842152214L184.49131944444446,169.410360637888L185.87847222222223,169.33921609963826L187.265625,169.33140371047352L188.65277777777777,169.25319761562238L190.03993055555554,169.23302628850138L191.42708333333334,169.2870885222314L192.81423611111111,169.29232163777283L194.20138888888889,169.315490891454L195.58854166666666,169.38527358627897L196.97569444444443,169.2312351610732L198.3628472222222,169.2151752843496L199.75,169.41062525484415L201.13715277777777,169.527048690711L202.52430555555554,169.60202540465178L203.91145833333334,169.54089808629283L205.29861111111111,169.504697294493L206.68576388888889,169.38604031842368L208.07291666666669,169.48702036185375L209.46006944444446,169.3623577021466L210.84722222222223,169.37896619034632L212.234375,169.4978296340918L213.62152777777777,169.62447254822072L215.00868055555557,169.44396960668857L216.39583333333334,169.4274312556387L217.78298611111111,169.43609418826753L219.17013888888889,169.48757990628337L220.55729166666666,169.2637037312013L221.94444444444443,169.21488627642526L223.33159722222223,169.42206292659122L224.71875,169.28432156628418L226.10590277777777,169.0923017913647L227.49305555555554,169.2347545014396L228.88020833333331,169.33267467217019L230.26736111111111,169.19459981228425L231.65451388888889,169.3052814119466" style="fill: none;" fill="none"></path></g></g></g></g><g opacity="0.2"><g><g><g><path stroke="rgb(255, 112, 67)" stroke-width="2px" d="M27.743055555555554,16.63431849846475L29.130208333333332,85.34656308247492L30.51736111111111,100.88809136243967L31.904513888888886,111.07674290583685L33.291666666666664,119.75199538010817L34.67881944444444,123.2049314242143L36.06597222222222,129.55358077929571L37.453125,134.13486713629504L38.84027777777778,138.31379302648398L40.22743055555556,143.09160575499902L41.61458333333333,147.8832275042167L43.001736111111114,150.73110098105212L44.38888888888889,154.06915182333728L45.776041666666664,155.24842983484268L47.16319444444444,157.49246882933838L48.55034722222222,157.6293498644462L49.9375,157.41250965686945L51.32465277777778,159.8132505233471L52.71180555555556,158.164633503327L54.098958333333336,160.76304560899734L55.48611111111111,161.9713008770576L56.873263888888886,161.16103716997L58.260416666666664,161.53358694681754L59.64756944444445,163.46376450245197L61.03472222222222,162.56003773212433L62.421875,163.42657269422824L63.80902777777777,164.19977194070816L65.19618055555556,164.35228899350534L66.58333333333333,164.2324964954303L67.9704861111111,164.6384264780925L69.35763888888889,165.5095623456515L70.74479166666667,165.59195499236768L72.13194444444444,165.6327308164193L73.51909722222223,165.52093095733568L74.90625,165.7749711687748L76.29340277777779,166.53168961635004L77.68055555555556,166.92935650394514L79.06770833333333,167.28942306225116L80.45486111111111,166.3529540850566L81.84201388888889,167.15978381954707L83.22916666666666,167.30997205009828L84.61631944444444,167.405195914782L86.00347222222223,166.8746884419368L87.390625,166.76626644684717L88.77777777777779,167.2684151186393L90.16493055555556,167.5460417476984L91.55208333333333,168.06667851943237L92.93923611111111,168.42491871118546L94.32638888888889,168.51685297259917L95.71354166666667,167.51146876124236L97.10069444444444,168.1289206124269L98.48784722222221,168.50058084726334L99.875,168.65442370222166L101.26215277777777,168.25602172888242L102.64930555555556,168.38950976958643L104.03645833333334,168.59954570577696L105.42361111111111,168.21476677518623L106.81076388888889,168.59776977392343L108.19791666666667,169.3554445894865L109.58506944444444,168.85059766127512L110.97222222222221,169.47186426703746L112.359375,169.14348078691043L113.74652777777777,169.26406447933272L115.13368055555556,168.91538103268698L116.52083333333333,169.39311426648726L117.90798611111111,169.2783734339934L119.2951388888889,169.09626571260966L120.68229166666667,169.2245419575618L122.06944444444444,169.78969113414104L123.45659722222223,169.27979632295094L124.84375,169.36026425545032L126.23090277777777,169.33876898655524L127.61805555555554,169.54341597511217L129.00520833333334,169.5109864633817L130.39236111111111,169.0461279474772L131.77951388888889,169.7915061528866L133.16666666666666,169.51106968063576L134.55381944444443,169.24461496793307L135.9409722222222,169.3985612140252L137.328125,169.6472427386504L138.71527777777777,169.15619285290057L140.10243055555554,169.46493516977017L141.48958333333334,169.53934526443481L142.87673611111111,169.3986847790388L144.26388888888889,169.00581486179277L145.65104166666669,169.4603254382427L147.03819444444446,169.23610852544124L148.42534722222223,168.61041690523808L149.8125,169.26023018130888L151.19965277777777,169.59959455636832L152.58680555555557,170.0481090774903L153.97395833333334,169.20648822646874L155.36111111111111,169.55907721015123L156.74826388888889,169.506154188743L158.13541666666666,169.17654199325122L159.52256944444443,169.07321831583977L160.90972222222223,169.56371531119714L162.296875,169.49170464735764L163.68402777777777,169.59387715275471L165.07118055555554,169.28695363723315L166.45833333333331,169.15157240399947L167.84548611111111,169.20756122469902L169.23263888888889,169.37885070305603L170.61979166666666,169.3198465177646L172.00694444444446,169.71135028508994L173.39409722222223,169.0726326428927L174.78125,168.82955819597612L176.1684027777778,169.16589964123872L177.55555555555557,169.14443400272955L178.94270833333334,169.24165382064305L180.32986111111111,168.9515729729946L181.71701388888889,169.6130681863198L183.10416666666666,169.60676006628916L184.49131944444446,169.3929339624368L185.87847222222223,169.2324992922636L187.265625,169.31968512672645L188.65277777777777,169.1358884733457L190.03993055555554,169.20276929781988L191.42708333333334,169.36818187282637L192.81423611111111,169.30017131108505L194.20138888888889,169.35024477197572L195.58854166666666,169.4899476285164L196.97569444444443,169.0001775232645L198.3628472222222,169.19108546926424L199.75,169.70380021058597L201.13715277777777,169.70168384451134L202.52430555555554,169.7144904755629L203.91145833333334,169.44920710875436L205.29861111111111,169.45039610679333L206.68576388888889,169.20805485431964L208.07291666666669,169.63849042699889L209.46006944444446,169.1753637125859L210.84722222222223,169.40387892264587L212.234375,169.67612479971007L213.62152777777777,169.81443691941408L215.00868055555557,169.17321519439037L216.39583333333334,169.40262372906392L217.78298611111111,169.44908858721072L219.17013888888889,169.5648084833072L220.55729166666666,168.9278894685782L221.94444444444443,169.14166009426117L223.33159722222223,169.7328279018402L224.71875,169.0777095258236L226.10590277777777,168.80427212898547L227.49305555555554,169.44843356655196L228.88020833333331,169.47955492826608L230.26736111111111,168.98748752245535L231.65451388888889,169.4713038114401" style="fill: none;" fill="none"></path></g></g></g></g></g></g><g transform="translate(80, 176)" clip-path="url(#clip_1)"><clipPath id="clip_1"><rect width="249" height="24"></rect></clipPath><g><g><line x1="0" y1="0" x2="0" y2="5" style="visibility: inherit;" fill="rgb(0, 0, 0)" stroke="rgb(204, 204, 204)" stroke-width="1px"></line><line x1="27.743055555555554" y1="0" x2="27.743055555555554" y2="5" style="visibility: inherit;" fill="rgb(0, 0, 0)" stroke="rgb(204, 204, 204)" stroke-width="1px"></line><line x1="55.48611111111111" y1="0" x2="55.48611111111111" y2="5" style="visibility: inherit;" fill="rgb(0, 0, 0)" stroke="rgb(204, 204, 204)" stroke-width="1px"></line><line x1="83.22916666666666" y1="0" x2="83.22916666666666" y2="5" style="visibility: inherit;" fill="rgb(0, 0, 0)" stroke="rgb(204, 204, 204)" stroke-width="1px"></line><line x1="110.97222222222221" y1="0" x2="110.97222222222221" y2="5" style="visibility: inherit;" fill="rgb(0, 0, 0)" stroke="rgb(204, 204, 204)" stroke-width="1px"></line><line x1="138.71527777777777" y1="0" x2="138.71527777777777" y2="5" style="visibility: inherit;" fill="rgb(0, 0, 0)" stroke="rgb(204, 204, 204)" stroke-width="1px"></line><line x1="166.45833333333331" y1="0" x2="166.45833333333331" y2="5" style="visibility: inherit;" fill="rgb(0, 0, 0)" stroke="rgb(204, 204, 204)" stroke-width="1px"></line><line x1="194.20138888888889" y1="0" x2="194.20138888888889" y2="5" style="visibility: inherit;" fill="rgb(0, 0, 0)" stroke="rgb(204, 204, 204)" stroke-width="1px"></line><line x1="221.94444444444443" y1="0" x2="221.94444444444443" y2="5" style="visibility: inherit;" fill="rgb(0, 0, 0)" stroke="rgb(204, 204, 204)" stroke-width="1px"></line><line x1="249.6875" y1="0" x2="249.6875" y2="5" style="visibility: inherit;" fill="rgb(0, 0, 0)" stroke="rgb(204, 204, 204)" stroke-width="1px"></line></g><g transform="translate(0, 8)"><text style="text-anchor: middle; visibility: hidden; font-family: &quot;Helvetica Neue&quot;, sans-serif; font-size: 12px; font-weight: 200;" x="0" y="0" dx="0em" dy="0.95em" fill="rgb(50, 49, 63)" stroke="none" stroke-width="1px">-20.00</text><text style="text-anchor: middle; visibility: inherit; font-family: &quot;Helvetica Neue&quot;, sans-serif; font-size: 12px; font-weight: 200;" x="27.743055555555554" y="0" dx="0em" dy="0.95em" fill="rgb(50, 49, 63)" stroke="none" stroke-width="1px">0.000</text><text style="text-anchor: middle; visibility: hidden; font-family: &quot;Helvetica Neue&quot;, sans-serif; font-size: 12px; font-weight: 200;" x="55.48611111111111" y="0" dx="0em" dy="0.95em" fill="rgb(50, 49, 63)" stroke="none" stroke-width="1px">20.00</text><text style="text-anchor: middle; visibility: inherit; font-family: &quot;Helvetica Neue&quot;, sans-serif; font-size: 12px; font-weight: 200;" x="83.22916666666666" y="0" dx="0em" dy="0.95em" fill="rgb(50, 49, 63)" stroke="none" stroke-width="1px">40.00</text><text style="text-anchor: middle; visibility: hidden; font-family: &quot;Helvetica Neue&quot;, sans-serif; font-size: 12px; font-weight: 200;" x="110.97222222222221" y="0" dx="0em" dy="0.95em" fill="rgb(50, 49, 63)" stroke="none" stroke-width="1px">60.00</text><text style="text-anchor: middle; visibility: inherit; font-family: &quot;Helvetica Neue&quot;, sans-serif; font-size: 12px; font-weight: 200;" x="138.71527777777777" y="0" dx="0em" dy="0.95em" fill="rgb(50, 49, 63)" stroke="none" stroke-width="1px">80.00</text><text style="text-anchor: middle; visibility: hidden; font-family: &quot;Helvetica Neue&quot;, sans-serif; font-size: 12px; font-weight: 200;" x="166.45833333333331" y="0" dx="0em" dy="0.95em" fill="rgb(50, 49, 63)" stroke="none" stroke-width="1px">100.0</text><text style="text-anchor: middle; visibility: inherit; font-family: &quot;Helvetica Neue&quot;, sans-serif; font-size: 12px; font-weight: 200;" x="194.20138888888889" y="0" dx="0em" dy="0.95em" fill="rgb(50, 49, 63)" stroke="none" stroke-width="1px">120.0</text><text style="text-anchor: middle; visibility: hidden; font-family: &quot;Helvetica Neue&quot;, sans-serif; font-size: 12px; font-weight: 200;" x="221.94444444444443" y="0" dx="0em" dy="0.95em" fill="rgb(50, 49, 63)" stroke="none" stroke-width="1px">140.0</text><text style="text-anchor: middle; visibility: hidden; font-family: &quot;Helvetica Neue&quot;, sans-serif; font-size: 12px; font-weight: 200;" x="249.6875" y="0" dx="0em" dy="0.95em" fill="rgb(50, 49, 63)" stroke="none" stroke-width="1px">160.0</text></g><line x1="0" y1="0" x2="249.6875" y2="0" fill="rgb(0, 0, 0)" stroke="rgb(204, 204, 204)" stroke-width="1px"></line></g></g></g></g></svg>