<svg viewBox="0 0 330 200" xmlns="http://www.w3.org/2000/svg"><g><g><g><g><g><line x1="115.46875" y1="176" x2="110.46875" y2="176" style="visibility: inherit;" fill="rgb(0, 0, 0)" stroke="rgb(204, 204, 204)" stroke-width="1px"></line><line x1="115.46875" y1="161.33333333333334" x2="110.46875" y2="161.33333333333334" style="visibility: inherit;" fill="rgb(0, 0, 0)" stroke="rgb(204, 204, 204)" stroke-width="1px"></line><line x1="115.46875" y1="146.66666666666666" x2="110.46875" y2="146.66666666666666" style="visibility: inherit;" fill="rgb(0, 0, 0)" stroke="rgb(204, 204, 204)" stroke-width="1px"></line><line x1="115.46875" y1="132" x2="110.46875" y2="132" style="visibility: inherit;" fill="rgb(0, 0, 0)" stroke="rgb(204, 204, 204)" stroke-width="1px"></line><line x1="115.46875" y1="117.33333333333334" x2="110.46875" y2="117.33333333333334" style="visibility: inherit;" fill="rgb(0, 0, 0)" stroke="rgb(204, 204, 204)" stroke-width="1px"></line><line x1="115.46875" y1="102.66666666666667" x2="110.46875" y2="102.66666666666667" style="visibility: inherit;" fill="rgb(0, 0, 0)" stroke="rgb(204, 204, 204)" stroke-width="1px"></line><line x1="115.46875" y1="88" x2="110.46875" y2="88" style="visibility: inherit;" fill="rgb(0, 0, 0)" stroke="rgb(204, 204, 204)" stroke-width="1px"></line><line x1="115.46875" y1="73.33333333333334" x2="110.46875" y2="73.33333333333334" style="visibility: inherit;" fill="rgb(0, 0, 0)" stroke="rgb(204, 204, 204)" stroke-width="1px"></line><line x1="115.46875" y1="58.66666666666667" x2="110.46875" y2="58.66666666666667" style="visibility: inherit;" fill="rgb(0, 0, 0)" stroke="rgb(204, 204, 204)" stroke-width="1px"></line><line x1="115.46875" y1="44" x2="110.46875" y2="44" style="visibility: inherit;" fill="rgb(0, 0, 0)" stroke="rgb(204, 204, 204)" stroke-width="1px"></line><line x1="115.46875" y1="29.333333333333343" x2="110.46875" y2="29.333333333333343" style="visibility: inherit;" fill="rgb(0, 0, 0)" stroke="rgb(204, 204, 204)" stroke-width="1px"></line><line x1="115.46875" y1="14.666666666666686" x2="110.46875" y2="14.666666666666686" style="visibility: inherit;" fill="rgb(0, 0, 0)" stroke="rgb(204, 204, 204)" stroke-width="1px"></line><line x1="115.46875" y1="0" x2="110.46875" y2="0" style="visibility: inherit;" fill="rgb(0, 0, 0)" stroke="rgb(204, 204, 204)" stroke-width="1px"></line></g><g transform="translate(105.46875, 0)"><text style="text-anchor: end; visibility: hidden; font-family: &quot;Helvetica Neue&quot;, sans-serif; font-size: 12px; font-weight: 200;" x="0" y="176" dx="0em" dy="0.3em" fill="rgb(50, 49, 63)" stroke="none" stroke-width="1px">-1.000e-4</text><text style="text-anchor: end; visibility: inherit; font-family: &quot;Helvetica Neue&quot;, sans-serif; font-size: 12px; font-weight: 200;" x="0" y="161.33333333333334" dx="0em" dy="0.3em" fill="rgb(50, 49, 63)" stroke="none" stroke-width="1px">0.00</text><text style="text-anchor: end; visibility: hidden; font-family: &quot;Helvetica Neue&quot;, sans-serif; font-size: 12px; font-weight: 200;" x="0" y="146.66666666666666" dx="0em" dy="0.3em" fill="rgb(50, 49, 63)" stroke="none" stroke-width="1px">1.000e-4</text><text style="text-anchor: end; visibility: inherit; font-family: &quot;Helvetica Neue&quot;, sans-serif; font-size: 12px; font-weight: 200;" x="0" y="132" dx="0em" dy="0.3em" fill="rgb(50, 49, 63)" stroke="none" stroke-width="1px">2.000e-4</text><text style="text-anchor: end; visibility: hidden; font-family: &quot;Helvetica Neue&quot;, sans-serif; font-size: 12px; font-weight: 200;" x="0" y="117.33333333333334" dx="0em" dy="0.3em" fill="rgb(50, 49, 63)" stroke="none" stroke-width="1px">3.000e-4</text><text style="text-anchor: end; visibility: inherit; font-family: &quot;Helvetica Neue&quot;, sans-serif; font-size: 12px; font-weight: 200;" x="0" y="102.66666666666667" dx="0em" dy="0.3em" fill="rgb(50, 49, 63)" stroke="none" stroke-width="1px">4.000e-4</text><text style="text-anchor: end; visibility: hidden; font-family: &quot;Helvetica Neue&quot;, sans-serif; font-size: 12px; font-weight: 200;" x="0" y="88" dx="0em" dy="0.3em" fill="rgb(50, 49, 63)" stroke="none" stroke-width="1px">5.000e-4</text><text style="text-anchor: end; visibility: inherit; font-family: &quot;Helvetica Neue&quot;, sans-serif; font-size: 12px; font-weight: 200;" x="0" y="73.33333333333334" dx="0em" dy="0.3em" fill="rgb(50, 49, 63)" stroke="none" stroke-width="1px">6.000e-4</text><text style="text-anchor: end; visibility: hidden; font-family: &quot;Helvetica Neue&quot;, sans-serif; font-size: 12px; font-weight: 200;" x="0" y="58.66666666666667" dx="0em" dy="0.3em" fill="rgb(50, 49, 63)" stroke="none" stroke-width="1px">7.000e-4</text><text style="text-anchor: end; visibility: inherit; font-family: &quot;Helvetica Neue&quot;, sans-serif; font-size: 12px; font-weight: 200;" x="0" y="44" dx="0em" dy="0.3em" fill="rgb(50, 49, 63)" stroke="none" stroke-width="1px">8.000e-4</text><text style="text-anchor: end; visibility: hidden; font-family: &quot;Helvetica Neue&quot;, sans-serif; font-size: 12px; font-weight: 200;" x="0" y="29.333333333333343" dx="0em" dy="0.3em" fill="rgb(50, 49, 63)" stroke="none" stroke-width="1px">9.000e-4</text><text style="text-anchor: end; visibility: inherit; font-family: &quot;Helvetica Neue&quot;, sans-serif; font-size: 12px; font-weight: 200;" x="0" y="14.666666666666686" dx="0em" dy="0.3em" fill="rgb(50, 49, 63)" stroke="none" stroke-width="1px">1.000e-3</text><text style="text-anchor: end; visibility: hidden; font-family: &quot;Helvetica Neue&quot;, sans-serif; font-size: 12px; font-weight: 200;" x="0" y="0" dx="0em" dy="0.3em" fill="rgb(50, 49, 63)" stroke="none" stroke-width="1px">1.100e-3</text></g><line x1="115.46875" y1="0" x2="115.46875" y2="176" fill="rgb(0, 0, 0)" stroke="rgb(204, 204, 204)" stroke-width="1px"></line></g></g><g transform="translate(115, 0)" clip-path="url(#clip_0)"><clipPath id="clip_0"><rect width="214" height="176"></rect></clipPath><g><g><g><line x1="0" y1="0" x2="0" y2="176" fill="rgb(0, 0, 0)" stroke="rgb(60, 60, 60)" stroke-width="1px" opacity="0.25"></line><line x1="23.836805555555554" y1="0" x2="23.836805555555554" y2="176" fill="rgb(0, 0, 0)" stroke="rgb(60, 60, 60)" stroke-width="1px" opacity="0.25"></line><line x1="47.67361111111111" y1="0" x2="47.67361111111111" y2="176" fill="rgb(0, 0, 0)" stroke="rgb(60, 60, 60)" stroke-width="1px" opacity="0.25"></line><line x1="71.51041666666666" y1="0" x2="71.51041666666666" y2="176" fill="rgb(0, 0, 0)" stroke="rgb(60, 60, 60)" stroke-width="1px" opacity="0.25"></line><line x1="95.34722222222221" y1="0" x2="95.34722222222221" y2="176" fill="rgb(0, 0, 0)" stroke="rgb(60, 60, 60)" stroke-width="1px" opacity="0.25"></line><line x1="119.18402777777779" y1="0" x2="119.18402777777779" y2="176" fill="rgb(0, 0, 0)" stroke="rgb(60, 60, 60)" stroke-width="1px" opacity="0.25"></line><line x1="143.02083333333331" y1="0" x2="143.02083333333331" y2="176" fill="rgb(0, 0, 0)" stroke="rgb(60, 60, 60)" stroke-width="1px" opacity="0.25"></line><line x1="166.85763888888889" y1="0" x2="166.85763888888889" y2="176" fill="rgb(0, 0, 0)" stroke="rgb(60, 60, 60)" stroke-width="1px" opacity="0.25"></line><line x1="190.69444444444443" y1="0" x2="190.69444444444443" y2="176" fill="rgb(0, 0, 0)" stroke="rgb(60, 60, 60)" stroke-width="1px" opacity="0.25"></line><line x1="214.53125" y1="0" x2="214.53125" y2="176" fill="rgb(0, 0, 0)" stroke="rgb(60, 60, 60)" stroke-width="1px" opacity="0.25"></line></g><g><line x1="0" y1="176" x2="214.53125" y2="176" fill="rgb(0, 0, 0)" stroke="rgb(60, 60, 60)" stroke-width="1px" opacity="0.25"></line><line x1="0" y1="161.33333333333334" x2="214.53125" y2="161.33333333333334" fill="rgb(0, 0, 0)" stroke="rgb(60, 60, 60)" stroke-width="1px" opacity="0.25"></line><line x1="0" y1="146.66666666666666" x2="214.53125" y2="146.66666666666666" fill="rgb(0, 0, 0)" stroke="rgb(60, 60, 60)" stroke-width="1px" opacity="0.25"></line><line x1="0" y1="132" x2="214.53125" y2="132" fill="rgb(0, 0, 0)" stroke="rgb(60, 60, 60)" stroke-width="1px" opacity="0.25"></line><line x1="0" y1="117.33333333333334" x2="214.53125" y2="117.33333333333334" fill="rgb(0, 0, 0)" stroke="rgb(60, 60, 60)" stroke-width="1px" opacity="0.25"></line><line x1="0" y1="102.66666666666667" x2="214.53125" y2="102.66666666666667" fill="rgb(0, 0, 0)" stroke="rgb(60, 60, 60)" stroke-width="1px" opacity="0.25"></line><line x1="0" y1="88" x2="214.53125" y2="88" fill="rgb(0, 0, 0)" stroke="rgb(60, 60, 60)" stroke-width="1px" opacity="0.25"></line><line x1="0" y1="73.33333333333334" x2="214.53125" y2="73.33333333333334" fill="rgb(0, 0, 0)" stroke="rgb(60, 60, 60)" stroke-width="1px" opacity="0.25"></line><line x1="0" y1="58.66666666666667" x2="214.53125" y2="58.66666666666667" fill="rgb(0, 0, 0)" stroke="rgb(60, 60, 60)" stroke-width="1px" opacity="0.25"></line><line x1="0" y1="44" x2="214.53125" y2="44" fill="rgb(0, 0, 0)" stroke="rgb(60, 60, 60)" stroke-width="1px" opacity="0.25"></line><line x1="0" y1="29.333333333333343" x2="214.53125" y2="29.333333333333343" fill="rgb(0, 0, 0)" stroke="rgb(60, 60, 60)" stroke-width="1px" opacity="0.25"></line><line x1="0" y1="14.666666666666686" x2="214.53125" y2="14.666666666666686" fill="rgb(0, 0, 0)" stroke="rgb(60, 60, 60)" stroke-width="1px" opacity="0.25"></line><line x1="0" y1="0" x2="214.53125" y2="0" fill="rgb(0, 0, 0)" stroke="rgb(60, 60, 60)" stroke-width="1px" opacity="0.25"></line></g></g></g><g><g><line x1="0" y1="161.33333333333334" x2="214.53125" y2="161.33333333333334" fill="rgb(0, 0, 0)" stroke="rgb(153, 153, 153)" stroke-width="1.5px"></line></g></g><g><g><line x1="23.836805555555554" y1="0" x2="23.836805555555554" y2="176" fill="rgb(0, 0, 0)" stroke="rgb(153, 153, 153)" stroke-width="1.5px"></line></g></g><g><g><g><g><g><path stroke="rgb(255, 112, 67)" stroke-width="2px" d="M23.836805555555554,14.666659700373827L25.028645833333332,14.666659700373827L26.22048611111111,14.666659700373827L27.412326388888886,14.666659700373856L28.604166666666668,14.666659700373827L29.796006944444446,14.666659700373827L30.987847222222218,14.666659700373827L32.1796875,14.666659700373827L33.37152777777778,14.666659700373827L34.56336805555556,14.666659700373827L35.75520833333333,14.666659700373827L36.947048611111114,14.66665970037377L38.13888888888889,14.66665970037377L39.330729166666664,14.666659700373827L40.52256944444444,14.666659700373827L41.71440972222222,14.66665970037377L42.90625,14.66665970037377L44.09809027777778,14.666659700373827L45.28993055555556,14.666659700373856L46.481770833333336,14.666659700373827L47.67361111111111,14.666659700373827L48.865451388888886,14.666659700373827L50.057291666666664,14.666659700373827L51.24913194444445,14.666659700373827L52.44097222222222,14.666659700373827L53.6328125,14.666659700373827L54.82465277777777,14.666659700373856L56.01649305555556,14.666659700373827L57.208333333333336,14.666659700373827L58.40017361111111,14.666659700373856L59.59201388888889,14.666659700373827L60.783854166666664,14.666659700373856L61.975694444444436,14.666659700373827L63.16753472222222,14.666659700373856L64.359375,14.666659700373856L65.55121527777779,14.666659700373856L66.74305555555556,14.666659700373856L67.93489583333333,14.666659700373856L69.12673611111111,14.666659700373884L70.31857638888889,14.666659700373856L71.51041666666666,14.666659700373856L72.70225694444444,14.666659700373856L73.89409722222223,14.666659700373856L75.0859375,14.666659700373856L76.27777777777779,14.666659700373856L77.46961805555556,14.666659700373856L78.66145833333333,14.666659700373856L79.85329861111111,14.666659700373856L81.04513888888889,14.666659700373827L82.23697916666667,14.666659700373827L83.42881944444444,14.666659700373856L84.62065972222221,14.666659700373856L85.8125,14.666659700373827L87.00434027777777,14.666659700373856L88.19618055555556,14.666659700373884L89.38802083333334,14.666659700373856L90.57986111111111,14.666659700373856L91.77170138888889,14.666659700373827L92.96354166666667,67.46666220824352L94.15538194444444,99.14666371296262L95.34722222222221,118.1546646157931L96.5390625,129.55946515749102L97.73090277777777,136.40234548250965L98.92274305555556,140.50807367752077L100.11458333333333,142.97151059452742L101.30642361111111,144.4495727447314L102.4982638888889,145.3364100348538L103.69010416666667,145.86851240892724L104.88194444444444,151.46777407348642L106.07378472222223,154.82733107222197L107.265625,156.84306527146327L108.45746527777777,158.05250579100806L109.64930555555554,158.77817010273492L110.84114583333334,159.21356868977105L112.03298611111111,159.4748078419927L113.22482638888889,159.63155133332572L114.41666666666667,159.72559742812552L115.60850694444444,159.78202508500542L116.80034722222221,160.3438817111484L117.99218750000001,160.6809956868342L119.18402777777779,160.88326407224568L120.37586805555556,161.00462510349257L121.56770833333333,161.0774417222407L122.7595486111111,161.1211316934896L123.95138888888887,161.1473456762389L125.14322916666667,161.1630740658885L126.33506944444444,161.17251109967825L127.52690972222223,161.17817331995212L128.71875,161.18157065878606L129.91059027777777,161.18360906208642L131.10243055555557,161.18483210406663L132.29427083333334,161.18556592925478L133.48611111111111,161.18600622436765L134.67795138888889,161.18627040143537L135.86979166666666,161.186428907676L137.06163194444443,161.1865240114204L138.25347222222223,161.186581073667L139.4453125,161.186615311015L140.63715277777777,161.18663585342378L141.82899305555554,161.18664817886906L143.02083333333331,161.1866555741362L144.21267361111111,161.1866600112965L145.40451388888889,161.1866626735927L146.59635416666666,161.1866642709704L147.78819444444446,161.18666522939702L148.98003472222223,161.186665804453L150.171875,161.1866661494866L151.3637152777778,161.18666635650675L152.55555555555557,161.18666648071883L153.74739583333334,161.1866665552461L154.93923611111111,161.18666659996245L156.13107638888889,161.18666662679226L157.32291666666666,161.18666664289015L158.51475694444446,161.18666665254887L159.70659722222223,161.1866666583441L160.8984375,161.18666666182125L162.09027777777777,161.18666666390754L163.28211805555554,161.1866666651593L164.47395833333334,161.18666666591037L165.66579861111111,161.18666666636102L166.85763888888889,161.1866666666314L168.04947916666666,161.18666666679363L169.24131944444443,161.18666666689097L170.4331597222222,161.18666666694935L171.625,161.1866666669844L172.81684027777777,161.18666666700543L174.00868055555554,161.18666666701805L175.20052083333334,161.1866666670256L176.39236111111111,161.18666666703015L177.58420138888889,161.18666666703288L178.77604166666669,161.1866666670345L179.96788194444446,161.1866666670355L181.15972222222223,161.1866666670361L182.3515625,161.18666666703643L183.54340277777777,161.18666666703666L184.73524305555557,161.18666666703677L185.92708333333334,161.18666666703686L187.11892361111111,161.1866666670369L188.31076388888889,161.18666666703692L189.50260416666666,161.18666666703695L190.69444444444443,161.18666666703695L191.88628472222223,161.18666666703695L193.078125,161.18666666703695L194.26996527777777,161.18666666703695L195.46180555555554,161.18666666703697L196.65364583333331,161.18666666703697L197.84548611111111,161.18666666703697L199.03732638888889,161.18666666703697" style="fill: none;" fill="none"></path></g></g></g></g><g opacity="0.2"><g><g><g><path stroke="rgb(255, 112, 67)" stroke-width="2px" d="M23.836805555555554,14.666659700373827L25.028645833333332,14.666659700373827L26.22048611111111,14.666659700373827L27.412326388888886,14.666659700373827L28.604166666666668,14.666659700373827L29.796006944444446,14.666659700373827L30.987847222222218,14.666659700373827L32.1796875,14.666659700373827L33.37152777777778,14.666659700373827L34.56336805555556,14.666659700373827L35.75520833333333,14.666659700373827L36.947048611111114,14.666659700373827L38.13888888888889,14.666659700373827L39.330729166666664,14.666659700373827L40.52256944444444,14.666659700373827L41.71440972222222,14.666659700373827L42.90625,14.666659700373827L44.09809027777778,14.666659700373827L45.28993055555556,14.666659700373827L46.481770833333336,14.666659700373827L47.67361111111111,14.666659700373827L48.865451388888886,14.666659700373827L50.057291666666664,14.666659700373827L51.24913194444445,14.666659700373827L52.44097222222222,14.666659700373827L53.6328125,14.666659700373827L54.82465277777777,14.666659700373827L56.01649305555556,14.666659700373827L57.208333333333336,14.666659700373827L58.40017361111111,14.666659700373827L59.59201388888889,14.666659700373827L60.783854166666664,14.666659700373827L61.975694444444436,14.666659700373827L63.16753472222222,14.666659700373827L64.359375,14.666659700373827L65.55121527777779,14.666659700373827L66.74305555555556,14.666659700373827L67.93489583333333,14.666659700373827L69.12673611111111,14.666659700373827L70.31857638888889,14.666659700373827L71.51041666666666,14.666659700373827L72.70225694444444,14.666659700373827L73.89409722222223,14.666659700373827L75.0859375,14.666659700373827L76.27777777777779,14.666659700373827L77.46961805555556,14.666659700373827L78.66145833333333,14.666659700373827L79.85329861111111,14.666659700373827L81.04513888888889,14.666659700373827L82.23697916666667,14.666659700373827L83.42881944444444,14.666659700373827L84.62065972222221,14.666659700373827L85.8125,14.666659700373827L87.00434027777777,14.666659700373827L88.19618055555556,14.666659700373827L89.38802083333334,14.666659700373827L90.57986111111111,14.666659700373827L91.77170138888889,14.666659700373827L92.96354166666667,146.66666597003737L94.15538194444444,146.66666597003737L95.34722222222221,146.66666597003737L96.5390625,146.66666597003737L97.73090277777777,146.66666597003737L98.92274305555556,146.66666597003737L100.11458333333333,146.66666597003737L101.30642361111111,146.66666597003737L102.4982638888889,146.66666597003737L103.69010416666667,146.66666597003737L104.88194444444444,159.86666657032524L106.07378472222223,159.86666657032524L107.265625,159.86666657032524L108.45746527777777,159.86666657032524L109.64930555555554,159.86666657032524L110.84114583333334,159.86666657032524L112.03298611111111,159.86666657032524L113.22482638888889,159.86666657032524L114.41666666666667,159.86666657032524L115.60850694444444,159.86666657032524L116.80034722222221,161.1866666503629L117.99218750000001,161.1866666503629L119.18402777777779,161.1866666503629L120.37586805555556,161.1866666503629L121.56770833333333,161.1866666503629L122.7595486111111,161.1866666503629L123.95138888888887,161.1866666503629L125.14322916666667,161.1866666503629L126.33506944444444,161.1866666503629L127.52690972222223,161.1866666503629L128.71875,161.18666666703697L129.91059027777777,161.18666666703697L131.10243055555557,161.18666666703697L132.29427083333334,161.18666666703697L133.48611111111111,161.18666666703697L134.67795138888889,161.18666666703697L135.86979166666666,161.18666666703697L137.06163194444443,161.18666666703697L138.25347222222223,161.18666666703697L139.4453125,161.18666666703697L140.63715277777777,161.18666666703697L141.82899305555554,161.18666666703697L143.02083333333331,161.18666666703697L144.21267361111111,161.18666666703697L145.40451388888889,161.18666666703697L146.59635416666666,161.18666666703697L147.78819444444446,161.18666666703697L148.98003472222223,161.18666666703697L150.171875,161.18666666703697L151.3637152777778,161.18666666703697L152.55555555555557,161.18666666703697L153.74739583333334,161.18666666703697L154.93923611111111,161.18666666703697L156.13107638888889,161.18666666703697L157.32291666666666,161.18666666703697L158.51475694444446,161.18666666703697L159.70659722222223,161.18666666703697L160.8984375,161.18666666703697L162.09027777777777,161.18666666703697L163.28211805555554,161.18666666703697L164.47395833333334,161.18666666703697L165.66579861111111,161.18666666703697L166.85763888888889,161.18666666703697L168.04947916666666,161.18666666703697L169.24131944444443,161.18666666703697L170.4331597222222,161.18666666703697L171.625,161.18666666703697L172.81684027777777,161.18666666703697L174.00868055555554,161.18666666703697L175.20052083333334,161.18666666703697L176.39236111111111,161.18666666703697L177.58420138888889,161.18666666703697L178.77604166666669,161.18666666703697L179.96788194444446,161.18666666703697L181.15972222222223,161.18666666703697L182.3515625,161.18666666703697L183.54340277777777,161.18666666703697L184.73524305555557,161.18666666703697L185.92708333333334,161.18666666703697L187.11892361111111,161.18666666703697L188.31076388888889,161.18666666703697L189.50260416666666,161.18666666703697L190.69444444444443,161.18666666703697L191.88628472222223,161.18666666703697L193.078125,161.18666666703697L194.26996527777777,161.18666666703697L195.46180555555554,161.18666666703697L196.65364583333331,161.18666666703697L197.84548611111111,161.18666666703697L199.03732638888889,161.18666666703697" style="fill: none;" fill="none"></path></g></g></g></g></g></g><g transform="translate(115, 176)" clip-path="url(#clip_1)"><clipPath id="clip_1"><rect width="214" height="24"></rect></clipPath><g><g><line x1="0" y1="0" x2="0" y2="5" style="visibility: inherit;" fill="rgb(0, 0, 0)" stroke="rgb(204, 204, 204)" stroke-width="1px"></line><line x1="23.836805555555554" y1="0" x2="23.836805555555554" y2="5" style="visibility: inherit;" fill="rgb(0, 0, 0)" stroke="rgb(204, 204, 204)" stroke-width="1px"></line><line x1="47.67361111111111" y1="0" x2="47.67361111111111" y2="5" style="visibility: inherit;" fill="rgb(0, 0, 0)" stroke="rgb(204, 204, 204)" stroke-width="1px"></line><line x1="71.51041666666666" y1="0" x2="71.51041666666666" y2="5" style="visibility: inherit;" fill="rgb(0, 0, 0)" stroke="rgb(204, 204, 204)" stroke-width="1px"></line><line x1="95.34722222222221" y1="0" x2="95.34722222222221" y2="5" style="visibility: inherit;" fill="rgb(0, 0, 0)" stroke="rgb(204, 204, 204)" stroke-width="1px"></line><line x1="119.18402777777779" y1="0" x2="119.18402777777779" y2="5" style="visibility: inherit;" fill="rgb(0, 0, 0)" stroke="rgb(204, 204, 204)" stroke-width="1px"></line><line x1="143.02083333333331" y1="0" x2="143.02083333333331" y2="5" style="visibility: inherit;" fill="rgb(0, 0, 0)" stroke="rgb(204, 204, 204)" stroke-width="1px"></line><line x1="166.85763888888889" y1="0" x2="166.85763888888889" y2="5" style="visibility: inherit;" fill="rgb(0, 0, 0)" stroke="rgb(204, 204, 204)" stroke-width="1px"></line><line x1="190.69444444444443" y1="0" x2="190.69444444444443" y2="5" style="visibility: inherit;" fill="rgb(0, 0, 0)" stroke="rgb(204, 204, 204)" stroke-width="1px"></line><line x1="214.53125" y1="0" x2="214.53125" y2="5" style="visibility: inherit;" fill="rgb(0, 0, 0)" stroke="rgb(204, 204, 204)" stroke-width="1px"></line></g><g transform="translate(0, 8)"><text style="text-anchor: middle; visibility: hidden; font-family: &quot;Helvetica Neue&quot;, sans-serif; font-size: 12px; font-weight: 200;" x="0" y="0" dx="0em" dy="0.95em" fill="rgb(50, 49, 63)" stroke="none" stroke-width="1px">-20.00</text><text style="text-anchor: middle; visibility: inherit; font-family: &quot;Helvetica Neue&quot;, sans-serif; font-size: 12px; font-weight: 200;" x="23.836805555555554" y="0" dx="0em" dy="0.95em" fill="rgb(50, 49, 63)" stroke="none" stroke-width="1px">0.000</text><text style="text-anchor: middle; visibility: hidden; font-family: &quot;Helvetica Neue&quot;, sans-serif; font-size: 12px; font-weight: 200;" x="47.67361111111111" y="0" dx="0em" dy="0.95em" fill="rgb(50, 49, 63)" stroke="none" stroke-width="1px">20.00</text><text style="text-anchor: middle; visibility: inherit; font-family: &quot;Helvetica Neue&quot;, sans-serif; font-size: 12px; font-weight: 200;" x="71.51041666666666" y="0" dx="0em" dy="0.95em" fill="rgb(50, 49, 63)" stroke="none" stroke-width="1px">40.00</text><text style="text-anchor: middle; visibility: hidden; font-family: &quot;Helvetica Neue&quot;, sans-serif; font-size: 12px; font-weight: 200;" x="95.34722222222221" y="0" dx="0em" dy="0.95em" fill="rgb(50, 49, 63)" stroke="none" stroke-width="1px">60.00</text><text style="text-anchor: middle; visibility: inherit; font-family: &quot;Helvetica Neue&quot;, sans-serif; font-size: 12px; font-weight: 200;" x="119.18402777777779" y="0" dx="0em" dy="0.95em" fill="rgb(50, 49, 63)" stroke="none" stroke-width="1px">80.00</text><text style="text-anchor: middle; visibility: hidden; font-family: &quot;Helvetica Neue&quot;, sans-serif; font-size: 12px; font-weight: 200;" x="143.02083333333331" y="0" dx="0em" dy="0.95em" fill="rgb(50, 49, 63)" stroke="none" stroke-width="1px">100.0</text><text style="text-anchor: middle; visibility: inherit; font-family: &quot;Helvetica Neue&quot;, sans-serif; font-size: 12px; font-weight: 200;" x="166.85763888888889" y="0" dx="0em" dy="0.95em" fill="rgb(50, 49, 63)" stroke="none" stroke-width="1px">120.0</text><text style="text-anchor: middle; visibility: hidden; font-family: &quot;Helvetica Neue&quot;, sans-serif; font-size: 12px; font-weight: 200;" x="190.69444444444443" y="0" dx="0em" dy="0.95em" fill="rgb(50, 49, 63)" stroke="none" stroke-width="1px">140.0</text><text style="text-anchor: middle; visibility: hidden; font-family: &quot;Helvetica Neue&quot;, sans-serif; font-size: 12px; font-weight: 200;" x="214.53125" y="0" dx="0em" dy="0.95em" fill="rgb(50, 49, 63)" stroke="none" stroke-width="1px">160.0</text></g><line x1="0" y1="0" x2="214.53125" y2="0" fill="rgb(0, 0, 0)" stroke="rgb(204, 204, 204)" stroke-width="1px"></line></g></g></g></g></svg>